# xmcd
# Copyright (C) 1995-1998 Ti Kan
#
# Track frame offsets:
#       150
#       35217
#       55764
#       70519
#       90642
#       105790
#       127666
#       142358
#       151755
#       180111
#       247277
#       262939
#
# Disc length: 3768 seconds
#
# Revision: 0
# Processed by: cddbd v1.5.2PL0 Copyright (c) Steve Scherf et al.
# Submitted via: CD-Transfer v1.0
#
DISCID=950eb60c
DTITLE=Carneval Various - Carnevale
DYEAR=10
DGENRE=
TTITLE0=Gruppo Batucada - Medley
TTITLE1=Los Mayos La Collegiala
TTITLE2=Umberto Balsamo - Baila
TTITLE3=Los Locos - Macarena
TTITLE4=Scalzedonna - Bamboleo
TTITLE5=Gabriela Oliviera - Lambada
TTITLE6=Gibson Brothers - Baila Mi Ritmo
TTITLE7=Giacinto Livia - Gioca Jouer
TTITLE8=Grupo Tatu - 2 The Night
TTITLE9=Orquesta Manteca - Medley
TTITLE10=Valeria Caponetto Tropicana
TTITLE11=Y.s.orchestra - Corazon
EXTD=
EXTT0=
EXTT1=
EXTT2=
EXTT3=
EXTT4=
EXTT5=
EXTT6=
EXTT7=
EXTT8=
EXTT9=
EXTT10=
EXTT11=
PLAYORDER=
